<mxfile host="app.diagrams.net" agent="Mozilla/5.0 (Windows NT 10.0; Win64; x64) AppleWebKit/537.36 (KHTML, like Gecko) Chrome/132.0.0.0 Safari/537.36" version="26.0.16">
  <diagram name="Page-1" id="qRgoU0amyeTebQv3Geya">
    <mxGraphModel dx="794" dy="412" grid="1" gridSize="10" guides="1" tooltips="1" connect="1" arrows="1" fold="1" page="1" pageScale="1" pageWidth="827" pageHeight="1169" math="0" shadow="0">
      <root>
        <mxCell id="0" />
        <mxCell id="1" parent="0" />
        <mxCell id="0JtIVXXwXmBEs59w7TXP-3" style="edgeStyle=orthogonalEdgeStyle;rounded=0;orthogonalLoop=1;jettySize=auto;html=1;entryX=0.5;entryY=0;entryDx=0;entryDy=0;" edge="1" parent="1" source="0JtIVXXwXmBEs59w7TXP-1" target="0JtIVXXwXmBEs59w7TXP-2">
          <mxGeometry relative="1" as="geometry" />
        </mxCell>
        <mxCell id="0JtIVXXwXmBEs59w7TXP-1" value="START" style="ellipse;whiteSpace=wrap;html=1;" vertex="1" parent="1">
          <mxGeometry x="340" y="40" width="120" height="80" as="geometry" />
        </mxCell>
        <mxCell id="0JtIVXXwXmBEs59w7TXP-5" value="" style="edgeStyle=orthogonalEdgeStyle;rounded=0;orthogonalLoop=1;jettySize=auto;html=1;" edge="1" parent="1" source="0JtIVXXwXmBEs59w7TXP-2" target="0JtIVXXwXmBEs59w7TXP-4">
          <mxGeometry relative="1" as="geometry" />
        </mxCell>
        <mxCell id="0JtIVXXwXmBEs59w7TXP-2" value="Enter user name,&amp;nbsp;&lt;div&gt;date and slot&lt;/div&gt;" style="shape=parallelogram;perimeter=parallelogramPerimeter;whiteSpace=wrap;html=1;fixedSize=1;" vertex="1" parent="1">
          <mxGeometry x="340" y="190" width="120" height="60" as="geometry" />
        </mxCell>
        <mxCell id="0JtIVXXwXmBEs59w7TXP-12" value="" style="edgeStyle=orthogonalEdgeStyle;rounded=0;orthogonalLoop=1;jettySize=auto;html=1;" edge="1" parent="1" source="0JtIVXXwXmBEs59w7TXP-4" target="0JtIVXXwXmBEs59w7TXP-11">
          <mxGeometry relative="1" as="geometry">
            <Array as="points">
              <mxPoint x="400" y="420" />
              <mxPoint x="400" y="420" />
            </Array>
          </mxGeometry>
        </mxCell>
        <mxCell id="0JtIVXXwXmBEs59w7TXP-4" value="Are user details valid?" style="rhombus;whiteSpace=wrap;html=1;" vertex="1" parent="1">
          <mxGeometry x="330" y="310" width="140" height="80" as="geometry" />
        </mxCell>
        <mxCell id="0JtIVXXwXmBEs59w7TXP-8" style="edgeStyle=orthogonalEdgeStyle;rounded=0;orthogonalLoop=1;jettySize=auto;html=1;exitX=0.5;exitY=0;exitDx=0;exitDy=0;entryX=0.5;entryY=0;entryDx=0;entryDy=0;" edge="1" parent="1" source="0JtIVXXwXmBEs59w7TXP-6" target="0JtIVXXwXmBEs59w7TXP-2">
          <mxGeometry relative="1" as="geometry" />
        </mxCell>
        <mxCell id="0JtIVXXwXmBEs59w7TXP-6" value="Output &quot;Enter valid&lt;div&gt;details&quot;&lt;/div&gt;" style="shape=parallelogram;perimeter=parallelogramPerimeter;whiteSpace=wrap;html=1;fixedSize=1;" vertex="1" parent="1">
          <mxGeometry x="560" y="190" width="120" height="60" as="geometry" />
        </mxCell>
        <mxCell id="0JtIVXXwXmBEs59w7TXP-7" style="edgeStyle=orthogonalEdgeStyle;rounded=0;orthogonalLoop=1;jettySize=auto;html=1;entryX=0.433;entryY=1.067;entryDx=0;entryDy=0;entryPerimeter=0;" edge="1" parent="1" source="0JtIVXXwXmBEs59w7TXP-4" target="0JtIVXXwXmBEs59w7TXP-6">
          <mxGeometry relative="1" as="geometry" />
        </mxCell>
        <mxCell id="0JtIVXXwXmBEs59w7TXP-9" value="No" style="text;html=1;align=center;verticalAlign=middle;whiteSpace=wrap;rounded=0;" vertex="1" parent="1">
          <mxGeometry x="550" y="300" width="60" height="30" as="geometry" />
        </mxCell>
        <mxCell id="0JtIVXXwXmBEs59w7TXP-10" value="Yes" style="text;html=1;align=center;verticalAlign=middle;whiteSpace=wrap;rounded=0;" vertex="1" parent="1">
          <mxGeometry x="400" y="400" width="60" height="30" as="geometry" />
        </mxCell>
        <mxCell id="0JtIVXXwXmBEs59w7TXP-14" style="edgeStyle=orthogonalEdgeStyle;rounded=0;orthogonalLoop=1;jettySize=auto;html=1;entryX=0.5;entryY=0;entryDx=0;entryDy=0;" edge="1" parent="1" source="0JtIVXXwXmBEs59w7TXP-11" target="0JtIVXXwXmBEs59w7TXP-13">
          <mxGeometry relative="1" as="geometry" />
        </mxCell>
        <mxCell id="0JtIVXXwXmBEs59w7TXP-21" style="edgeStyle=orthogonalEdgeStyle;rounded=0;orthogonalLoop=1;jettySize=auto;html=1;entryX=0.5;entryY=1;entryDx=0;entryDy=0;" edge="1" parent="1" source="0JtIVXXwXmBEs59w7TXP-11" target="0JtIVXXwXmBEs59w7TXP-20">
          <mxGeometry relative="1" as="geometry" />
        </mxCell>
        <mxCell id="0JtIVXXwXmBEs59w7TXP-11" value="Check db if slot is available" style="shape=process;whiteSpace=wrap;html=1;backgroundOutline=1;" vertex="1" parent="1">
          <mxGeometry x="340" y="450" width="120" height="60" as="geometry" />
        </mxCell>
        <mxCell id="0JtIVXXwXmBEs59w7TXP-17" style="edgeStyle=orthogonalEdgeStyle;rounded=0;orthogonalLoop=1;jettySize=auto;html=1;exitX=0.5;exitY=1;exitDx=0;exitDy=0;entryX=0.5;entryY=0;entryDx=0;entryDy=0;" edge="1" parent="1" source="0JtIVXXwXmBEs59w7TXP-13" target="0JtIVXXwXmBEs59w7TXP-16">
          <mxGeometry relative="1" as="geometry" />
        </mxCell>
        <mxCell id="0JtIVXXwXmBEs59w7TXP-13" value="Add appointment in db" style="shape=process;whiteSpace=wrap;html=1;backgroundOutline=1;" vertex="1" parent="1">
          <mxGeometry x="340" y="560" width="120" height="60" as="geometry" />
        </mxCell>
        <mxCell id="0JtIVXXwXmBEs59w7TXP-15" value="If available" style="text;html=1;align=center;verticalAlign=middle;whiteSpace=wrap;rounded=0;" vertex="1" parent="1">
          <mxGeometry x="410" y="520" width="60" height="30" as="geometry" />
        </mxCell>
        <mxCell id="0JtIVXXwXmBEs59w7TXP-19" style="edgeStyle=orthogonalEdgeStyle;rounded=0;orthogonalLoop=1;jettySize=auto;html=1;entryX=0.5;entryY=0;entryDx=0;entryDy=0;" edge="1" parent="1" source="0JtIVXXwXmBEs59w7TXP-16" target="0JtIVXXwXmBEs59w7TXP-18">
          <mxGeometry relative="1" as="geometry" />
        </mxCell>
        <mxCell id="0JtIVXXwXmBEs59w7TXP-16" value="Output&lt;div&gt;confirmation to&lt;/div&gt;&lt;div&gt;user&lt;/div&gt;" style="shape=parallelogram;perimeter=parallelogramPerimeter;whiteSpace=wrap;html=1;fixedSize=1;" vertex="1" parent="1">
          <mxGeometry x="340" y="670" width="120" height="60" as="geometry" />
        </mxCell>
        <mxCell id="0JtIVXXwXmBEs59w7TXP-18" value="STOP" style="ellipse;whiteSpace=wrap;html=1;" vertex="1" parent="1">
          <mxGeometry x="340" y="770" width="120" height="80" as="geometry" />
        </mxCell>
        <mxCell id="0JtIVXXwXmBEs59w7TXP-23" style="rounded=0;orthogonalLoop=1;jettySize=auto;html=1;entryX=0;entryY=0.25;entryDx=0;entryDy=0;elbow=vertical;edgeStyle=orthogonalEdgeStyle;" edge="1" parent="1" source="0JtIVXXwXmBEs59w7TXP-20" target="0JtIVXXwXmBEs59w7TXP-2">
          <mxGeometry relative="1" as="geometry">
            <Array as="points">
              <mxPoint x="170" y="209" />
            </Array>
          </mxGeometry>
        </mxCell>
        <mxCell id="0JtIVXXwXmBEs59w7TXP-20" value="Output &quot;Slot is&amp;nbsp;&lt;div&gt;booked&quot;&lt;/div&gt;" style="shape=parallelogram;perimeter=parallelogramPerimeter;whiteSpace=wrap;html=1;fixedSize=1;" vertex="1" parent="1">
          <mxGeometry x="100" y="300" width="120" height="60" as="geometry" />
        </mxCell>
        <mxCell id="0JtIVXXwXmBEs59w7TXP-22" value="If not available" style="text;html=1;align=center;verticalAlign=middle;whiteSpace=wrap;rounded=0;" vertex="1" parent="1">
          <mxGeometry x="200" y="450" width="60" height="30" as="geometry" />
        </mxCell>
      </root>
    </mxGraphModel>
  </diagram>
</mxfile>
